<svg xmlns="http://www.w3.org/2000/svg" xmlns:xlink="http://www.w3.org/1999/xlink" width="646.46" height="117.999" viewBox="0 0 646.46 117.999">
  <defs>
    <linearGradient id="linear-gradient" x1="0.943" y1="0.057" x2="0.069" y2="0.931" gradientUnits="objectBoundingBox">
      <stop offset="0" stop-color="#ffcd3a"/>
      <stop offset="1" stop-color="#ff3b26"/>
    </linearGradient>
  </defs>
  <g id="Group_150" data-name="Group 150" transform="translate(983 -9010.001)">
    <g id="SolidExCRM" transform="translate(-983 9012.699)">
      <g id="Group_147" data-name="Group 147">
        <path id="Path_90" data-name="Path 90" d="M202.151,95.529q-9.311,0-15.53-4.045a22.032,22.032,0,0,1-8.83-11.006l12.006-6.96q3.655,8.439,12.789,8.439,8.265,0,8.265-4.96a4.68,4.68,0,0,0-2.654-4.219q-2.654-1.522-9.961-3.523a44.634,44.634,0,0,1-6.7-2.35,28.055,28.055,0,0,1-5.611-3.437,13.768,13.768,0,0,1-4.177-5.351,17.984,17.984,0,0,1-1.435-7.395,16.669,16.669,0,0,1,6.046-13.485,21.756,21.756,0,0,1,14.4-5.046,24.777,24.777,0,0,1,13.225,3.524,24.209,24.209,0,0,1,9.048,10.223l-11.745,6.873a13.564,13.564,0,0,0-4.089-5.264,10.666,10.666,0,0,0-6.438-1.783,7.6,7.6,0,0,0-4.828,1.349,4.046,4.046,0,0,0-1.7,3.263,4.846,4.846,0,0,0,2.131,3.915q2.131,1.652,8.831,3.653,3.653,1.132,5.654,1.827a40.427,40.427,0,0,1,5.09,2.306,16.732,16.732,0,0,1,4.7,3.393,17.175,17.175,0,0,1,2.871,4.7,16.638,16.638,0,0,1,1.261,6.655q0,8.7-6.264,13.7T202.151,95.529Z" transform="translate(-7.041 -14.354)" fill="#2b2b2b"/>
        <path id="Path_91" data-name="Path 91" d="M270.271,88.874a23.426,23.426,0,0,1-32.712,0,22.1,22.1,0,0,1-6.7-16.313,23.055,23.055,0,1,1,46.11,0,22.111,22.111,0,0,1-6.7,16.312Zm-23.49-8.918a10.3,10.3,0,0,0,14.268,0,10.005,10.005,0,0,0,2.871-7.395,10.008,10.008,0,0,0-2.871-7.395,10.3,10.3,0,0,0-14.268,0,10.008,10.008,0,0,0-2.871,7.395,10.005,10.005,0,0,0,2.871,7.395Z" transform="translate(-7.041 -14.354)" fill="#2b2b2b"/>
        <path id="Path_92" data-name="Path 92" d="M284.8,94.312V30.8h13.05v63.51Z" transform="translate(-7.041 -14.354)" fill="#2b2b2b"/>
        <path id="Path_93" data-name="Path 93" d="M319.9,44.678a7.83,7.83,0,1,1,1.258-9.461,7.83,7.83,0,0,1-1.258,9.461Zm-12.05,49.634v-43.5H320.9v43.5Z" transform="translate(-7.041 -14.354)" fill="#2b2b2b"/>
        <path id="Path_94" data-name="Path 94" d="M362.49,33.411h13.05v60.9H362.49V90.223q-4.613,5.307-12.964,5.307a19.217,19.217,0,0,1-14.7-6.655,23.274,23.274,0,0,1-6.091-16.312,23.274,23.274,0,0,1,6.091-16.313,19.217,19.217,0,0,1,14.7-6.655q8.353,0,12.964,5.307ZM344.654,80.3a11.186,11.186,0,0,0,14.965,0,10.462,10.462,0,0,0,2.871-7.743,10.465,10.465,0,0,0-2.871-7.743,11.186,11.186,0,0,0-14.965,0,10.468,10.468,0,0,0-2.87,7.743,10.465,10.465,0,0,0,2.87,7.743Z" transform="translate(-7.041 -14.354)" fill="#2b2b2b"/>
      </g>
      <g id="Group_148" data-name="Group 148">
        <path id="Path_95" data-name="Path 95" d="M393.809,88.569h29.58v5.742h-35.67v-60.9h35.234v5.742H393.809V60.729h26.97v5.742h-26.97Z" transform="translate(-7.041 -14.354)" fill="#2b2b2b"/>
        <path id="Path_96" data-name="Path 96" d="M469.934,94.312h-6.873L449.488,76.39,435.916,94.312h-6.872L446.1,71.778,430.175,50.812h6.873l12.44,16.443L461.93,50.812H468.8L452.969,71.778Z" transform="translate(-7.041 -14.354)" fill="#2b2b2b"/>
        <path id="Path_97" data-name="Path 97" d="M507.518,95.355q-13.834,0-22.882-9.135a30.557,30.557,0,0,1-9.048-22.359A30.557,30.557,0,0,1,484.636,41.5q9.048-9.136,22.882-9.136A30.555,30.555,0,0,1,523,36.413a28.311,28.311,0,0,1,10.875,10.918l-5.394,3.133a21.632,21.632,0,0,0-8.526-8.874,24.2,24.2,0,0,0-12.44-3.307q-11.4,0-18.618,7.4a25.022,25.022,0,0,0-7.222,18.183A25.02,25.02,0,0,0,488.9,82.045q7.22,7.395,18.618,7.395a24.194,24.194,0,0,0,12.44-3.306,21.631,21.631,0,0,0,8.526-8.874l5.394,3.045a27.9,27.9,0,0,1-10.831,10.962A30.539,30.539,0,0,1,507.518,95.355Z" transform="translate(-7.041 -14.354)" fill="#2b2b2b"/>
        <path id="Path_98" data-name="Path 98" d="M581.728,94.312,567.46,69.951H550.407v24.36h-6.09v-60.9h24.36a18.268,18.268,0,0,1,18.27,18.272,17.622,17.622,0,0,1-3.7,11,17.839,17.839,0,0,1-9.44,6.481l14.877,25.143Zm-31.32-55.158V64.21h18.271a11.532,11.532,0,0,0,8.613-3.7,12.769,12.769,0,0,0,0-17.7,11.6,11.6,0,0,0-8.613-3.654Z" transform="translate(-7.041 -14.354)" fill="#2b2b2b"/>
        <path id="Path_99" data-name="Path 99" d="M653.5,33.411v60.9h-6.09V42.634L626.1,78.3h-.869l-21.315-35.67V94.312h-6.09v-60.9h7.568l20.271,33.931,20.271-33.931Z" transform="translate(-7.041 -14.354)" fill="#2b2b2b"/>
      </g>
    </g>
    <g id="Software_for_booking_events" data-name="Software for booking events" transform="translate(-983 9012.699)">
      <g id="Group_149" data-name="Group 149">
        <path id="Path_100" data-name="Path 100" d="M183.743,123.608a7.892,7.892,0,0,1-4.441-1.2,5.936,5.936,0,0,1-2.471-3.254l1.242-.729a5.039,5.039,0,0,0,1.957,2.78,6.261,6.261,0,0,0,3.713,1.026,5.264,5.264,0,0,0,3.523-1.053,3.427,3.427,0,0,0,1.229-2.728,2.761,2.761,0,0,0-1.188-2.4,14.328,14.328,0,0,0-3.7-1.647q-.918-.3-1.337-.445t-1.2-.459a7.112,7.112,0,0,1-1.161-.554q-.379-.243-.9-.647a2.927,2.927,0,0,1-.77-.824,5.153,5.153,0,0,1-.433-1,4.121,4.121,0,0,1-.188-1.282,4.6,4.6,0,0,1,1.633-3.686,6.093,6.093,0,0,1,4.091-1.391,6.379,6.379,0,0,1,3.78,1.107,6.5,6.5,0,0,1,2.295,2.862l-1.215.675a4.869,4.869,0,0,0-4.86-3.268,4.519,4.519,0,0,0-3.1,1.026,3.339,3.339,0,0,0-1.161,2.619,2.612,2.612,0,0,0,1.08,2.295A14.343,14.343,0,0,0,183.689,113q1.564.514,2.443.878a13.062,13.062,0,0,1,1.89,1,4,4,0,0,1,1.472,1.512,4.342,4.342,0,0,1,.459,2.039,4.659,4.659,0,0,1-1.7,3.767,6.817,6.817,0,0,1-4.509,1.417Z" transform="translate(-7.041 -14.354)" fill="#2b2b2b"/>
        <path id="Path_101" data-name="Path 101" d="M199.861,123.608a6.9,6.9,0,0,1-5.035-2.038,7.106,7.106,0,0,1,0-10.018,7.206,7.206,0,0,1,10.044,0,7.106,7.106,0,0,1,0,10.018,6.865,6.865,0,0,1-5.009,2.038Zm-4.063-2.97a5.753,5.753,0,0,0,8.113,0,5.869,5.869,0,0,0,0-8.154,5.753,5.753,0,0,0-8.113,0,5.837,5.837,0,0,0,0,8.154Z" transform="translate(-7.041 -14.354)" fill="#2b2b2b"/>
        <path id="Path_102" data-name="Path 102" d="M216.116,105.41q-4.024-.324-4.023,3.673v.729h4.023v1.323h-4.023v12.177h-1.377V111.135h-2.322v-1.323h2.322v-.729a4.507,4.507,0,0,1,5.4-4.969Z" transform="translate(-7.041 -14.354)" fill="#2b2b2b"/>
        <path id="Path_103" data-name="Path 103" d="M225.646,111.135h-4.023v8.774a2.594,2.594,0,0,0,.432,1.675,1.826,1.826,0,0,0,1.323.58,13.591,13.591,0,0,0,2.269-.067v1.215a6.372,6.372,0,0,1-4.063-.378,3.2,3.2,0,0,1-1.337-3.024v-8.774h-2.97v-1.323h2.97v-3.375l1.377-.405v3.78h4.023Z" transform="translate(-7.041 -14.354)" fill="#2b2b2b"/>
        <path id="Path_104" data-name="Path 104" d="M245.383,109.812h1.431l-4.266,13.5h-1.485l-3.753-11.5-3.753,11.5h-1.484l-4.267-13.5h1.431l3.592,11.745,3.779-11.745h1.4l3.78,11.745Z" transform="translate(-7.041 -14.354)" fill="#2b2b2b"/>
        <path id="Path_105" data-name="Path 105" d="M261.231,109.812h1.377v13.5h-1.377v-3.051a6.371,6.371,0,0,1-2.376,2.457,6.628,6.628,0,0,1-3.429.891,7.047,7.047,0,1,1,0-14.094,6.628,6.628,0,0,1,3.429.891,6.371,6.371,0,0,1,2.376,2.457Zm-9.76,10.827a5.753,5.753,0,0,0,8.113,0,5.871,5.871,0,0,0,0-8.154,5.753,5.753,0,0,0-8.113,0,5.834,5.834,0,0,0,0,8.154Z" transform="translate(-7.041 -14.354)" fill="#2b2b2b"/>
        <path id="Path_106" data-name="Path 106" d="M268.225,112.458a4.48,4.48,0,0,1,4.509-2.836v1.3a4.489,4.489,0,0,0-3.213,1.229,4.807,4.807,0,0,0-1.3,3.658v7.506h-1.35v-13.5h1.35Z" transform="translate(-7.041 -14.354)" fill="#2b2b2b"/>
        <path id="Path_107" data-name="Path 107" d="M280.833,109.515a6.114,6.114,0,0,1,4.82,2.105,7.325,7.325,0,0,1,1.85,5c0,.072,0,.181-.014.324s-.014.252-.014.324H275.244a5.455,5.455,0,0,0,1.823,3.658,6.218,6.218,0,0,0,6.736.716,4.614,4.614,0,0,0,1.836-1.782l1.188.7a5.971,5.971,0,0,1-2.376,2.228,7.324,7.324,0,0,1-3.51.823,6.932,6.932,0,0,1-5.1-1.984,6.829,6.829,0,0,1-2-5.062,6.927,6.927,0,0,1,1.957-5.035,6.719,6.719,0,0,1,5.035-2.012Zm0,1.3A5.42,5.42,0,0,0,277,112.241a5.593,5.593,0,0,0-1.755,3.7H286.1a5.55,5.55,0,0,0-1.715-3.767A5.1,5.1,0,0,0,280.833,110.811Z" transform="translate(-7.041 -14.354)" fill="#2b2b2b"/>
        <path id="Path_108" data-name="Path 108" d="M304.458,105.41q-4.024-.324-4.022,3.673v.729h4.022v1.323h-4.022v12.177h-1.378V111.135h-2.321v-1.323h2.321v-.729a4.507,4.507,0,0,1,5.4-4.969Z" transform="translate(-7.041 -14.354)" fill="#2b2b2b"/>
        <path id="Path_109" data-name="Path 109" d="M311.938,123.608a6.9,6.9,0,0,1-5.036-2.038,7.106,7.106,0,0,1,0-10.018,7.206,7.206,0,0,1,10.044,0,7.106,7.106,0,0,1,0,10.018A6.864,6.864,0,0,1,311.938,123.608Zm-4.063-2.97a5.753,5.753,0,0,0,8.113,0,5.871,5.871,0,0,0,0-8.154,5.753,5.753,0,0,0-8.113,0,5.834,5.834,0,0,0,0,8.154Z" transform="translate(-7.041 -14.354)" fill="#2b2b2b"/>
        <path id="Path_110" data-name="Path 110" d="M323.709,112.458a4.481,4.481,0,0,1,4.509-2.836v1.3A4.489,4.489,0,0,0,325,112.147a4.807,4.807,0,0,0-1.3,3.658v7.506h-1.35v-13.5h1.35Z" transform="translate(-7.041 -14.354)" fill="#2b2b2b"/>
        <path id="Path_111" data-name="Path 111" d="M345.524,109.515a7.047,7.047,0,0,1,0,14.094,6.541,6.541,0,0,1-3.442-.918,6.277,6.277,0,0,1-2.362-2.511v3.132h-1.35v-18.9h1.35v8.532a6.29,6.29,0,0,1,2.362-2.511A6.55,6.55,0,0,1,345.524,109.515Zm-4.145,11.124a5.769,5.769,0,0,0,8.127,0,5.834,5.834,0,0,0,0-8.154,5.769,5.769,0,0,0-8.127,0,5.837,5.837,0,0,0,0,8.154Z" transform="translate(-7.041 -14.354)" fill="#2b2b2b"/>
        <path id="Path_112" data-name="Path 112" d="M362.075,123.608a6.9,6.9,0,0,1-5.035-2.038,7.106,7.106,0,0,1,0-10.018,7.206,7.206,0,0,1,10.044,0,7.106,7.106,0,0,1,0,10.018,6.865,6.865,0,0,1-5.009,2.038Zm-4.063-2.97a5.753,5.753,0,0,0,8.113,0,5.869,5.869,0,0,0,0-8.154,5.753,5.753,0,0,0-8.113,0A5.837,5.837,0,0,0,358.012,120.639Z" transform="translate(-7.041 -14.354)" fill="#2b2b2b"/>
        <path id="Path_113" data-name="Path 113" d="M378.681,123.608a6.9,6.9,0,0,1-5.036-2.038,7.106,7.106,0,0,1,0-10.018,7.206,7.206,0,0,1,10.044,0,7.106,7.106,0,0,1,0,10.018,6.864,6.864,0,0,1-5.008,2.038Zm-4.063-2.97a5.753,5.753,0,0,0,8.113,0,5.871,5.871,0,0,0,0-8.154,5.753,5.753,0,0,0-8.113,0,5.834,5.834,0,0,0,0,8.154Z" transform="translate(-7.041 -14.354)" fill="#2b2b2b"/>
        <path id="Path_114" data-name="Path 114" d="M399.442,123.312h-1.836l-7.154-6.642v6.642H389.1v-18.9h1.351V115.94l6.83-6.129h1.891l-7.263,6.48Z" transform="translate(-7.041 -14.354)" fill="#2b2b2b"/>
        <path id="Path_115" data-name="Path 115" d="M403.682,106.234a1.075,1.075,0,0,1-1.512,0,1.024,1.024,0,0,1-.324-.77,1,1,0,0,1,.324-.743,1.075,1.075,0,0,1,1.512,0,1,1,0,0,1,.324.743,1.024,1.024,0,0,1-.324.77Zm-1.431,17.077v-13.5h1.35v13.5Z" transform="translate(-7.041 -14.354)" fill="#2b2b2b"/>
        <path id="Path_116" data-name="Path 116" d="M414.05,109.515a5.057,5.057,0,0,1,3.82,1.472,5.425,5.425,0,0,1,1.417,3.928v8.4H417.91v-8.4a4.2,4.2,0,0,0-1.039-3,3.824,3.824,0,0,0-2.93-1.107,4.509,4.509,0,0,0-3.4,1.377,5.547,5.547,0,0,0-1.322,4v7.128h-1.351v-13.5h1.351v2.565a5.014,5.014,0,0,1,4.833-2.862Z" transform="translate(-7.041 -14.354)" fill="#2b2b2b"/>
        <path id="Path_117" data-name="Path 117" d="M435.19,109.812h1.35v12.852a5.894,5.894,0,0,1-1.916,4.645,6.98,6.98,0,0,1-4.807,1.7,8.441,8.441,0,0,1-3.969-.864,5.383,5.383,0,0,1-2.4-2.376l1.188-.675q1.3,2.618,5.185,2.619a5.478,5.478,0,0,0,3.941-1.364,4.847,4.847,0,0,0,1.432-3.686V120.18a6.279,6.279,0,0,1-2.363,2.511,6.537,6.537,0,0,1-3.441.918,7.047,7.047,0,0,1,0-14.094,6.546,6.546,0,0,1,3.441.918,6.292,6.292,0,0,1,2.363,2.511ZM425.4,120.639a5.77,5.77,0,0,0,8.128,0,5.837,5.837,0,0,0,0-8.154,5.77,5.77,0,0,0-8.128,0A5.837,5.837,0,0,0,425.4,120.639Z" transform="translate(-7.041 -14.354)" fill="#2b2b2b"/>
        <path id="Path_118" data-name="Path 118" d="M454.2,109.515a6.114,6.114,0,0,1,4.819,2.105,7.325,7.325,0,0,1,1.85,5c0,.072,0,.181-.014.324s-.014.252-.014.324h-12.23a5.454,5.454,0,0,0,1.822,3.658,6.218,6.218,0,0,0,6.736.716A4.614,4.614,0,0,0,459,119.855l1.188.7a5.984,5.984,0,0,1-2.376,2.228,7.328,7.328,0,0,1-3.511.823,6.933,6.933,0,0,1-5.1-1.984,6.833,6.833,0,0,1-2-5.062,6.931,6.931,0,0,1,1.957-5.035,6.721,6.721,0,0,1,5.036-2.012Zm0,1.3a5.417,5.417,0,0,0-3.834,1.431,5.584,5.584,0,0,0-1.755,3.7h10.854a5.55,5.55,0,0,0-1.715-3.767A5.1,5.1,0,0,0,454.2,110.811Z" transform="translate(-7.041 -14.354)" fill="#2b2b2b"/>
        <path id="Path_119" data-name="Path 119" d="M473.5,109.812h1.431l-5.7,13.5h-1.646l-5.725-13.5h1.458l5.076,12.1Z" transform="translate(-7.041 -14.354)" fill="#2b2b2b"/>
        <path id="Path_120" data-name="Path 120" d="M483.034,109.515a6.114,6.114,0,0,1,4.819,2.105,7.325,7.325,0,0,1,1.85,5c0,.072,0,.181-.014.324s-.014.252-.014.324h-12.23a5.454,5.454,0,0,0,1.822,3.658,6.218,6.218,0,0,0,6.736.716,4.614,4.614,0,0,0,1.836-1.782l1.188.7a5.984,5.984,0,0,1-2.376,2.228,7.328,7.328,0,0,1-3.511.823,6.933,6.933,0,0,1-5.1-1.984,6.833,6.833,0,0,1-2-5.063A6.931,6.931,0,0,1,478,111.526a6.721,6.721,0,0,1,5.036-2.012Zm0,1.3a5.417,5.417,0,0,0-3.834,1.431,5.585,5.585,0,0,0-1.755,3.7H488.3a5.55,5.55,0,0,0-1.715-3.767,5.1,5.1,0,0,0-3.55-1.363Z" transform="translate(-7.041 -14.354)" fill="#2b2b2b"/>
        <path id="Path_121" data-name="Path 121" d="M499.152,109.515a5.054,5.054,0,0,1,3.82,1.472,5.422,5.422,0,0,1,1.418,3.928v8.4h-1.377v-8.4a4.2,4.2,0,0,0-1.039-3,3.824,3.824,0,0,0-2.93-1.107,4.509,4.509,0,0,0-3.4,1.377,5.547,5.547,0,0,0-1.323,4v7.128h-1.35v-13.5h1.35v2.565a5.016,5.016,0,0,1,4.833-2.862Z" transform="translate(-7.041 -14.354)" fill="#2b2b2b"/>
        <path id="Path_122" data-name="Path 122" d="M515.218,111.135h-4.023v8.774a2.594,2.594,0,0,0,.433,1.675,1.822,1.822,0,0,0,1.322.58,13.588,13.588,0,0,0,2.269-.067v1.215a6.372,6.372,0,0,1-4.063-.378,3.2,3.2,0,0,1-1.337-3.024v-8.774h-2.97v-1.323h2.97v-3.375l1.377-.405v3.78h4.023Z" transform="translate(-7.041 -14.354)" fill="#2b2b2b"/>
        <path id="Path_123" data-name="Path 123" d="M518.674,113.349a1.789,1.789,0,0,0,.837,1.565,6.071,6.071,0,0,0,2.052.851q1.216.284,2.417.635a4.756,4.756,0,0,1,2.038,1.175,2.948,2.948,0,0,1,.837,2.2,3.387,3.387,0,0,1-1.336,2.754,5.389,5.389,0,0,1-3.5,1.08,6.142,6.142,0,0,1-3.28-.823,4.324,4.324,0,0,1-1.85-2.174l1.161-.675a3.205,3.205,0,0,0,1.418,1.741,4.8,4.8,0,0,0,2.551.635,4.389,4.389,0,0,0,2.5-.661,2.131,2.131,0,0,0,.985-1.877,1.859,1.859,0,0,0-.837-1.593,5.8,5.8,0,0,0-2.052-.878q-1.216-.283-2.417-.634a4.822,4.822,0,0,1-2.038-1.161,2.865,2.865,0,0,1-.837-2.16,3.464,3.464,0,0,1,1.282-2.728,4.883,4.883,0,0,1,3.308-1.106,5.337,5.337,0,0,1,2.821.728,4.408,4.408,0,0,1,1.769,1.972l-1.134.647a2.991,2.991,0,0,0-1.351-1.525,4.257,4.257,0,0,0-2.105-.526,3.777,3.777,0,0,0-2.309.688A2.184,2.184,0,0,0,518.674,113.349Z" transform="translate(-7.041 -14.354)" fill="#2b2b2b"/>
      </g>
    </g>
    <path id="Path_124" data-name="Path 124" d="M45.195,84.591a20.194,20.194,0,0,1,0-28.558L74.457,26.771,71.02,23.334a17,17,0,0,0-24.042,0L12.02,58.292a17,17,0,0,0,0,24.042l34.958,34.958a17,17,0,0,0,24.042,0l3.437-3.437Z" transform="translate(-990.041 8998.345)" fill="#eee"/>
    <rect id="Rectangle_53" data-name="Rectangle 53" width="83.438" height="83.438" rx="17" transform="translate(-886.697 9010.001) rotate(45)" fill="url(#linear-gradient)"/>
  </g>
</svg>
